AmstelvarAlpha-prwd304.ufo
<glyph name="asterisk" format="1">
  <advance width="600"/>
  <unicode hex="002A"/>
  <outline>
    <contour>
      <point x="300" y="870" type="qcurve" smooth="yes"/>
      <point x="258" y="870"/>
      <point x="213" y="928"/>
      <point x="225" y="970" type="qcurve" smooth="yes"/>
      <point x="275" y="1147" type="line"/>
      <point x="270" y="1152" type="line"/>
      <point x="143" y="1018" type="line" smooth="yes"/>
      <point x="120" y="992"/>
      <point x="45" y="995"/>
      <point x="22" y="1035" type="qcurve" smooth="yes"/>
      <point x="-1" y="1075"/>
      <point x="35" y="1143"/>
      <point x="69" y="1151" type="qcurve" smooth="yes"/>
      <point x="242" y="1197" type="line"/>
      <point x="242" y="1202" type="line"/>
      <point x="69" y="1249" type="line" smooth="yes"/>
      <point x="35" y="1257"/>
      <point x="-1" y="1325"/>
      <point x="22" y="1366" type="qcurve" smooth="yes"/>
      <point x="45" y="1406"/>
      <point x="120" y="1407"/>
      <point x="143" y="1382" type="qcurve" smooth="yes"/>
      <point x="268" y="1250" type="line"/>
      <point x="273" y="1253" type="line"/>
      <point x="225" y="1431" type="line" smooth="yes"/>
      <point x="213" y="1474"/>
      <point x="260" y="1530"/>
      <point x="300" y="1530" type="qcurve" smooth="yes"/>
      <point x="342" y="1530"/>
      <point x="388" y="1472"/>
      <point x="375" y="1431" type="qcurve" smooth="yes"/>
      <point x="326" y="1253" type="line"/>
      <point x="330" y="1250" type="line"/>
      <point x="457" y="1382" type="line" smooth="yes"/>
      <point x="480" y="1407"/>
      <point x="556" y="1406"/>
      <point x="578" y="1365" type="qcurve" smooth="yes"/>
      <point x="601" y="1325"/>
      <point x="565" y="1257"/>
      <point x="532" y="1249" type="qcurve" smooth="yes"/>
      <point x="357" y="1202" type="line"/>
      <point x="358" y="1199" type="line"/>
      <point x="532" y="1151" type="line" smooth="yes"/>
      <point x="565" y="1143"/>
      <point x="601" y="1075"/>
      <point x="578" y="1034" type="qcurve" smooth="yes"/>
      <point x="556" y="995"/>
      <point x="480" y="992"/>
      <point x="457" y="1018" type="qcurve" smooth="yes"/>
      <point x="332" y="1152" type="line"/>
      <point x="327" y="1147" type="line"/>
      <point x="375" y="970" type="line" smooth="yes"/>
      <point x="386" y="928"/>
      <point x="345" y="870"/>
    </contour>
  </outline>
</glyph>
<glyph name="three" format="1">
  <advance width="544"/>
  <unicode hex="0033"/>
  <outline>
    <contour>
      <point x="5" y="51" type="qcurve"/>
      <point x="5" y="167" type="line"/>
      <point x="45" y="132"/>
      <point x="136" y="102"/>
      <point x="187" y="102" type="qcurve" smooth="yes"/>
      <point x="260" y="102"/>
      <point x="343" y="220"/>
      <point x="343" y="406" type="qcurve" smooth="yes"/>
      <point x="343" y="574"/>
      <point x="225" y="728"/>
      <point x="141" y="728" type="qcurve" smooth="yes"/>
      <point x="107" y="728" type="line"/>
      <point x="96" y="829" type="line"/>
      <point x="154" y="834" type="line" smooth="yes"/>
      <point x="229" y="839"/>
      <point x="318" y="980"/>
      <point x="318" y="1161" type="qcurve" smooth="yes"/>
      <point x="318" y="1314"/>
      <point x="240" y="1402"/>
      <point x="187" y="1402" type="qcurve" smooth="yes"/>
      <point x="144" y="1402"/>
      <point x="76" y="1374"/>
      <point x="37" y="1340" type="qcurve"/>
      <point x="37" y="1438" type="line"/>
      <point x="74" y="1478"/>
      <point x="177" y="1520"/>
      <point x="255" y="1520" type="qcurve" smooth="yes"/>
      <point x="363" y="1520"/>
      <point x="501" y="1346"/>
      <point x="501" y="1182" type="qcurve" smooth="yes"/>
      <point x="501" y="1027"/>
      <point x="392" y="837"/>
      <point x="284" y="800" type="qcurve"/>
      <point x="284" y="793" type="line"/>
      <point x="393" y="772"/>
      <point x="532" y="575"/>
      <point x="532" y="395" type="qcurve" smooth="yes"/>
      <point x="532" y="209"/>
      <point x="366" y="-22"/>
      <point x="235" y="-22" type="qcurve" smooth="yes"/>
      <point x="161" y="-22"/>
      <point x="46" y="17"/>
    </contour>
  </outline>
</glyph>
<glyph name="seven" format="1">
  <advance width="545"/>
  <unicode hex="0037"/>
  <outline>
    <contour>
      <point x="10" y="1220" type="line"/>
      <point x="10" y="1500" type="line"/>
      <point x="545" y="1500" type="line"/>
      <point x="545" y="1344" type="line"/>
      <point x="394" y="677" type="line"/>
      <point x="242" y="-22" type="line"/>
      <point x="144" y="-22" type="line"/>
      <point x="144" y="51" type="line"/>
      <point x="274" y="691" type="line"/>
      <point x="393" y="1312" type="line"/>
      <point x="377" y="1326" type="line"/>
      <point x="133" y="1326" type="line"/>
      <point x="104" y="1220" type="line"/>
    </contour>
  </outline>
</glyph>
<glyph name="eight" format="1">
  <advance width="616"/>
  <unicode hex="0038"/>
  <outline>
    <contour>
      <point x="23" y="358" type="qcurve" smooth="yes"/>
      <point x="23" y="526"/>
      <point x="164" y="760"/>
      <point x="243" y="829" type="qcurve"/>
      <point x="296" y="769" type="line"/>
      <point x="241" y="712"/>
      <point x="162" y="502"/>
      <point x="162" y="374" type="qcurve" smooth="yes"/>
      <point x="162" y="212"/>
      <point x="226" y="96"/>
      <point x="291" y="96" type="qcurve" smooth="yes"/>
      <point x="355" y="96"/>
      <point x="421" y="211"/>
      <point x="421" y="365" type="qcurve" smooth="yes"/>
      <point x="421" y="484"/>
      <point x="336" y="647"/>
      <point x="255" y="730" type="qcurve" smooth="yes"/>
      <point x="159" y="828"/>
      <point x="63" y="1015"/>
      <point x="63" y="1188" type="qcurve" smooth="yes"/>
      <point x="63" y="1342"/>
      <point x="205" y="1520"/>
      <point x="310" y="1520" type="qcurve" smooth="yes"/>
      <point x="420" y="1520"/>
      <point x="546" y="1362"/>
      <point x="546" y="1217" type="qcurve" smooth="yes"/>
      <point x="546" y="1086"/>
      <point x="439" y="887"/>
      <point x="358" y="807" type="qcurve"/>
      <point x="295" y="856" type="line"/>
      <point x="345" y="923"/>
      <point x="403" y="1092"/>
      <point x="403" y="1205" type="qcurve" smooth="yes"/>
      <point x="403" y="1306"/>
      <point x="357" y="1397"/>
      <point x="305" y="1397" type="qcurve" smooth="yes"/>
      <point x="251" y="1397"/>
      <point x="206" y="1303"/>
      <point x="206" y="1209" type="qcurve" smooth="yes"/>
      <point x="206" y="1108"/>
      <point x="268" y="979"/>
      <point x="372" y="874" type="qcurve" smooth="yes"/>
      <point x="468" y="779"/>
      <point x="593" y="546"/>
      <point x="593" y="374" type="qcurve" smooth="yes"/>
      <point x="593" y="202"/>
      <point x="428" y="-23"/>
      <point x="302" y="-23" type="qcurve" smooth="yes"/>
      <point x="173" y="-23"/>
      <point x="23" y="190"/>
    </contour>
  </outline>
</glyph>
<glyph name="semicolon" format="1">
  <advance width="399"/>
  <unicode hex="003B"/>
  <outline>
    <contour>
      <point x="63" y="-228" type="line"/>
      <point x="103" y="-196"/>
      <point x="193" y="-80"/>
      <point x="208" y="-13" type="qcurve"/>
      <point x="144" y="-13"/>
      <point x="80" y="53"/>
      <point x="80" y="104" type="qcurve" smooth="yes"/>
      <point x="80" y="155"/>
      <point x="148" y="224"/>
      <point x="201" y="224" type="qcurve" smooth="yes"/>
      <point x="251" y="224"/>
      <point x="323" y="160"/>
      <point x="323" y="89" type="qcurve" smooth="yes"/>
      <point x="323" y="-14"/>
      <point x="197" y="-216"/>
      <point x="106" y="-277" type="qcurve"/>
    </contour>
    <contour>
      <point x="78" y="901" type="qcurve" smooth="yes"/>
      <point x="78" y="952"/>
      <point x="149" y="1028"/>
      <point x="204" y="1028" type="qcurve" smooth="yes"/>
      <point x="260" y="1028"/>
      <point x="332" y="952"/>
      <point x="332" y="901" type="qcurve" smooth="yes"/>
      <point x="332" y="851"/>
      <point x="260" y="775"/>
      <point x="204" y="775" type="qcurve" smooth="yes"/>
      <point x="149" y="775"/>
      <point x="78" y="851"/>
    </contour>
  </outline>
</glyph>
<glyph name="greater" format="1">
  <advance width="457"/>
  <unicode hex="003E"/>
  <outline>
    <contour>
      <point x="431" y="634" type="qcurve"/>
      <point x="431" y="634"/>
      <point x="187" y="284"/>
      <point x="146" y="230" type="qcurve" smooth="yes"/>
      <point x="106" y="176"/>
      <point x="14" y="234"/>
      <point x="48" y="292" type="qcurve" smooth="yes"/>
      <point x="129" y="428"/>
      <point x="255" y="635"/>
      <point x="255" y="635" type="qcurve"/>
      <point x="255" y="635"/>
      <point x="129" y="846"/>
      <point x="48" y="982" type="qcurve" smooth="yes"/>
      <point x="13" y="1040"/>
      <point x="107" y="1097"/>
      <point x="147" y="1043" type="qcurve" smooth="yes"/>
      <point x="188" y="989"/>
      <point x="431" y="634"/>
    </contour>
  </outline>
</glyph>
<glyph name="at" format="1">
  <advance width="1100"/>
  <unicode hex="0040"/>
  <outline>
    <contour>
      <point x="29" y="746" type="qcurve" smooth="yes"/>
      <point x="29" y="1064"/>
      <point x="309" y="1510"/>
      <point x="564" y="1510" type="qcurve" smooth="yes"/>
      <point x="797" y="1510"/>
      <point x="1077" y="1132"/>
      <point x="1077" y="825" type="qcurve" smooth="yes"/>
      <point x="1077" y="594"/>
      <point x="916" y="353"/>
      <point x="781" y="353" type="qcurve" smooth="yes"/>
      <point x="686" y="353"/>
      <point x="594" y="445"/>
      <point x="595" y="532" type="qcurve" smooth="yes"/>
      <point x="599" y="931" type="line" smooth="yes"/>
      <point x="599" y="1015"/>
      <point x="545" y="1075"/>
      <point x="494" y="1075" type="qcurve" smooth="yes"/>
      <point x="458" y="1075"/>
      <point x="404" y="1047"/>
      <point x="373" y="1004" type="qcurve"/>
      <point x="322" y="1054" type="line"/>
      <point x="350" y="1114"/>
      <point x="454" y="1191"/>
      <point x="540" y="1191" type="qcurve" smooth="yes"/>
      <point x="641" y="1191"/>
      <point x="754" y="1065"/>
      <point x="756" y="947" type="qcurve" smooth="yes"/>
      <point x="760" y="491" type="line"/>
      <point x="768" y="465"/>
      <point x="794" y="449"/>
      <point x="823" y="449" type="qcurve" smooth="yes"/>
      <point x="903" y="449"/>
      <point x="983" y="617"/>
      <point x="983" y="809" type="qcurve" smooth="yes"/>
      <point x="983" y="1041"/>
      <point x="777" y="1372"/>
      <point x="562" y="1372" type="qcurve" smooth="yes"/>
      <point x="340" y="1372"/>
      <point x="127" y="1047"/>
      <point x="129" y="761" type="qcurve" smooth="yes"/>
      <point x="130" y="452"/>
      <point x="362" y="97"/>
      <point x="573" y="97" type="qcurve" smooth="yes"/>
      <point x="660" y="97"/>
      <point x="801" y="145"/>
      <point x="839" y="175" type="qcurve"/>
      <point x="873" y="116" type="line"/>
      <point x="819" y="52"/>
      <point x="651" y="-20"/>
      <point x="559" y="-20" type="qcurve" smooth="yes"/>
      <point x="314" y="-20"/>
      <point x="29" y="403"/>
    </contour>
    <contour>
      <point x="261" y="588" type="qcurve" smooth="yes"/>
      <point x="261" y="711"/>
      <point x="433" y="869"/>
      <point x="611" y="938" type="qcurve"/>
      <point x="614" y="857" type="line"/>
      <point x="522" y="812"/>
      <point x="433" y="723"/>
      <point x="433" y="599" type="qcurve" smooth="yes"/>
      <point x="433" y="497"/>
      <point x="473" y="450"/>
      <point x="509" y="450" type="qcurve" smooth="yes"/>
      <point x="547" y="450"/>
      <point x="599" y="525"/>
      <point x="602" y="603" type="qcurve"/>
      <point x="661" y="603" type="line"/>
      <point x="663" y="486"/>
      <point x="535" y="343"/>
      <point x="445" y="343" type="qcurve" smooth="yes"/>
      <point x="354" y="343"/>
      <point x="261" y="480"/>
    </contour>
  </outline>
</glyph>
<glyph name="B" format="1">
  <advance width="756"/>
  <unicode hex="0042"/>
  <outline>
    <contour>
      <point x="31" y="0" type="line"/>
      <point x="31" y="100" type="line"/>
      <point x="121" y="136" type="line"/>
      <point x="123" y="784" type="line"/>
      <point x="121" y="1352" type="line"/>
      <point x="31" y="1386" type="line"/>
      <point x="31" y="1500" type="line"/>
      <point x="358" y="1500" type="line" smooth="yes"/>
      <point x="510" y="1500"/>
      <point x="662" y="1315"/>
      <point x="662" y="1172" type="qcurve" smooth="yes"/>
      <point x="662" y="1037"/>
      <point x="564" y="854"/>
      <point x="492" y="832" type="qcurve"/>
      <point x="492" y="825" type="line"/>
      <point x="581" y="795"/>
      <point x="730" y="604"/>
      <point x="730" y="433" type="qcurve" smooth="yes"/>
      <point x="730" y="246"/>
      <point x="543" y="0"/>
      <point x="376" y="0" type="qcurve" smooth="yes"/>
    </contour>
    <contour>
      <point x="299" y="135" type="line"/>
      <point x="312" y="115" type="line"/>
      <point x="364" y="115" type="line" smooth="yes"/>
      <point x="460" y="115"/>
      <point x="544" y="271"/>
      <point x="544" y="440" type="qcurve" smooth="yes"/>
      <point x="544" y="584"/>
      <point x="471" y="738"/>
      <point x="398" y="738" type="qcurve" smooth="yes"/>
      <point x="301" y="738" type="line"/>
      <point x="299" y="731" type="line"/>
    </contour>
    <contour>
      <point x="298" y="875" type="line"/>
      <point x="298" y="852" type="line"/>
      <point x="356" y="852" type="line" smooth="yes"/>
      <point x="430" y="852"/>
      <point x="486" y="991"/>
      <point x="486" y="1129" type="qcurve" smooth="yes"/>
      <point x="486" y="1255"/>
      <point x="432" y="1370"/>
      <point x="361" y="1370" type="qcurve" smooth="yes"/>
      <point x="314" y="1370" type="line"/>
      <point x="300" y="1359" type="line"/>
    </contour>
  </outline>
</glyph>
<glyph name="D" format="1">
  <advance width="836"/>
  <unicode hex="0044"/>
  <outline>
    <contour>
      <point x="31" y="0" type="line"/>
      <point x="31" y="100" type="line"/>
      <point x="121" y="135" type="line"/>
      <point x="123" y="754" type="line"/>
      <point x="121" y="1352" type="line"/>
      <point x="31" y="1386" type="line"/>
      <point x="31" y="1500" type="line"/>
      <point x="372" y="1500" type="line" smooth="yes"/>
      <point x="567" y="1500"/>
      <point x="806" y="1188"/>
      <point x="806" y="777" type="qcurve" smooth="yes"/>
      <point x="806" y="341"/>
      <point x="567" y="0"/>
      <point x="350" y="0" type="qcurve" smooth="yes"/>
    </contour>
    <contour>
      <point x="298" y="130" type="line"/>
      <point x="312" y="124"/>
      <point x="367" y="112"/>
      <point x="394" y="112" type="qcurve" smooth="yes"/>
      <point x="502" y="112"/>
      <point x="615" y="361"/>
      <point x="616" y="761" type="qcurve" smooth="yes"/>
      <point x="616" y="1154"/>
      <point x="487" y="1375"/>
      <point x="381" y="1375" type="qcurve" smooth="yes"/>
      <point x="362" y="1375"/>
      <point x="312" y="1363"/>
      <point x="298" y="1358" type="qcurve"/>
      <point x="298" y="754" type="line"/>
    </contour>
  </outline>
</glyph>
<glyph name="F" format="1">
  <advance width="627"/>
  <unicode hex="0046"/>
  <outline>
    <contour>
      <point x="31" y="0" type="line"/>
      <point x="31" y="100" type="line"/>
      <point x="121" y="137" type="line"/>
      <point x="123" y="760" type="line"/>
      <point x="121" y="1352" type="line"/>
      <point x="31" y="1386" type="line"/>
      <point x="31" y="1500" type="line"/>
      <point x="620" y="1500" type="line"/>
      <point x="620" y="1211" type="line"/>
      <point x="516" y="1211" type="line"/>
      <point x="479" y="1382" type="line"/>
      <point x="338" y="1382" type="line"/>
      <point x="292" y="1355" type="line"/>
      <point x="299" y="760" type="line"/>
      <point x="301" y="132" type="line"/>
      <point x="404" y="100" type="line"/>
      <point x="404" y="0" type="line"/>
    </contour>
    <contour>
      <point x="204" y="726" type="line"/>
      <point x="204" y="828" type="line"/>
      <point x="437" y="835" type="line"/>
      <point x="458" y="949" type="line"/>
      <point x="551" y="949" type="line"/>
      <point x="551" y="594" type="line"/>
      <point x="458" y="594" type="line"/>
      <point x="437" y="719" type="line"/>
    </contour>
  </outline>
</glyph>
<glyph name="G" format="1">
  <advance width="796"/>
  <unicode hex="0047"/>
  <outline>
    <contour>
      <point x="30" y="745" type="qcurve" smooth="yes"/>
      <point x="30" y="1167"/>
      <point x="248" y="1510"/>
      <point x="423" y="1510" type="qcurve" smooth="yes"/>
      <point x="503" y="1510"/>
      <point x="620" y="1437"/>
      <point x="660" y="1380" type="qcurve"/>
      <point x="582" y="1270" type="line"/>
      <point x="544" y="1334"/>
      <point x="468" y="1382"/>
      <point x="425" y="1382" type="qcurve" smooth="yes"/>
      <point x="324" y="1382"/>
      <point x="221" y="1188"/>
      <point x="222" y="775" type="qcurve" smooth="yes"/>
      <point x="222" y="366"/>
      <point x="335" y="106"/>
      <point x="461" y="106" type="qcurve" smooth="yes"/>
      <point x="528" y="106"/>
      <point x="627" y="178"/>
      <point x="654" y="245" type="qcurve"/>
      <point x="728" y="205" type="line"/>
      <point x="705" y="110"/>
      <point x="556" y="-19"/>
      <point x="436" y="-19" type="qcurve" smooth="yes"/>
      <point x="246" y="-19"/>
      <point x="30" y="325"/>
    </contour>
    <contour>
      <point x="486" y="605" type="line"/>
      <point x="486" y="705" type="line"/>
      <point x="782" y="705" type="line"/>
      <point x="782" y="605" type="line"/>
      <point x="728" y="570" type="line"/>
      <point x="728" y="205" type="line"/>
      <point x="560" y="91" type="line"/>
      <point x="560" y="570" type="line"/>
    </contour>
    <contour>
      <point x="548" y="1325" type="line"/>
      <point x="624" y="1487" type="line"/>
      <point x="701" y="1487" type="line"/>
      <point x="701" y="1124" type="line"/>
      <point x="608" y="1124" type="line"/>
    </contour>
  </outline>
</glyph>
<glyph name="J" format="1">
  <advance width="428"/>
  <unicode hex="004A"/>
  <outline>
    <contour>
      <point x="8" y="0" type="qcurve"/>
      <point x="8" y="102" type="line"/>
      <point x="40" y="102" type="line" smooth="yes"/>
      <point x="104" y="102"/>
      <point x="162" y="170"/>
      <point x="162" y="251" type="qcurve" smooth="yes"/>
      <point x="160" y="754" type="line"/>
      <point x="158" y="1352" type="line"/>
      <point x="56" y="1386" type="line"/>
      <point x="56" y="1500" type="line"/>
      <point x="422" y="1500" type="line"/>
      <point x="422" y="1386" type="line"/>
      <point x="338" y="1352" type="line"/>
      <point x="336" y="754" type="line"/>
      <point x="339" y="293" type="line" smooth="yes"/>
      <point x="340" y="147"/>
      <point x="210" y="-12"/>
      <point x="117" y="-12" type="qcurve" smooth="yes"/>
      <point x="76" y="-12"/>
      <point x="29" y="-5"/>
    </contour>
  </outline>
</glyph>
<glyph name="N" format="1">
  <advance width="806"/>
  <unicode hex="004E"/>
  <outline>
    <contour>
      <point x="31" y="0" type="line"/>
      <point x="31" y="100" type="line"/>
      <point x="121" y="135" type="line"/>
      <point x="123" y="754" type="line"/>
      <point x="121" y="1352" type="line"/>
      <point x="31" y="1386" type="line"/>
      <point x="31" y="1500" type="line"/>
      <point x="297" y="1500" type="line"/>
      <point x="453" y="977" type="line"/>
      <point x="580" y="554" type="line"/>
      <point x="577" y="822" type="line"/>
      <point x="575" y="1352" type="line"/>
      <point x="486" y="1386" type="line"/>
      <point x="486" y="1500" type="line"/>
      <point x="778" y="1500" type="line"/>
      <point x="778" y="1386" type="line"/>
      <point x="695" y="1352" type="line"/>
      <point x="693" y="754" type="line"/>
      <point x="689" y="0" type="line"/>
      <point x="553" y="0" type="line"/>
      <point x="391" y="502" type="line"/>
      <point x="234" y="1109" type="line"/>
      <point x="239" y="614" type="line"/>
      <point x="241" y="135" type="line"/>
      <point x="334" y="100" type="line"/>
      <point x="334" y="0" type="line"/>
    </contour>
  </outline>
</glyph>
<glyph name="Q" format="1">
  <advance width="864"/>
  <unicode hex="0051"/>
  <outline>
    <contour>
      <point x="30" y="747" type="qcurve" smooth="yes"/>
      <point x="30" y="1126"/>
      <point x="236" y="1517"/>
      <point x="423" y="1517" type="qcurve" smooth="yes"/>
      <point x="610" y="1517"/>
      <point x="815" y="1146"/>
      <point x="815" y="755" type="qcurve" smooth="yes"/>
      <point x="815" y="362"/>
      <point x="599" y="-10"/>
      <point x="423" y="-10" type="qcurve" smooth="yes"/>
      <point x="238" y="-10"/>
      <point x="30" y="367"/>
    </contour>
    <contour>
      <point x="221" y="777" type="qcurve" smooth="yes"/>
      <point x="222" y="378"/>
      <point x="324" y="108"/>
      <point x="420" y="108" type="qcurve" smooth="yes"/>
      <point x="522" y="108"/>
      <point x="622" y="333"/>
      <point x="623" y="752" type="qcurve" smooth="yes"/>
      <point x="623" y="1165"/>
      <point x="515" y="1380"/>
      <point x="422" y="1380" type="qcurve" smooth="yes"/>
      <point x="321" y="1380"/>
      <point x="220" y="1175"/>
    </contour>
    <contour>
      <point x="79" y="-224" type="line"/>
      <point x="122" y="-131"/>
      <point x="248" y="-39"/>
      <point x="310" y="-39" type="qcurve"/>
      <point x="629" y="-159" type="line"/>
      <point x="672" y="-159"/>
      <point x="739" y="-112"/>
      <point x="763" y="-67" type="qcurve"/>
      <point x="828" y="-110" type="line"/>
      <point x="792" y="-198"/>
      <point x="688" y="-318"/>
      <point x="592" y="-318" type="qcurve"/>
      <point x="290" y="-194" type="line"/>
      <point x="247" y="-194"/>
      <point x="175" y="-225"/>
      <point x="134" y="-277" type="qcurve"/>
    </contour>
    <contour>
      <point x="242" y="-127" type="line"/>
      <point x="346" y="37" type="line"/>
      <point x="354" y="52"/>
      <point x="365" y="68"/>
      <point x="375" y="80" type="qcurve"/>
      <point x="404" y="70"/>
      <point x="432" y="57"/>
      <point x="454" y="43" type="qcurve"/>
      <point x="445" y="25"/>
      <point x="436" y="10"/>
      <point x="426" y="-5" type="qcurve" smooth="yes"/>
      <point x="327" y="-169" type="line"/>
    </contour>
  </outline>
</glyph>
<glyph name="W" format="1">
  <advance width="1223"/>
  <unicode hex="0057"/>
  <outline>
    <contour>
      <point x="-13" y="1392" type="line"/>
      <point x="-13" y="1500" type="line"/>
      <point x="328" y="1500" type="line"/>
      <point x="328" y="1392" type="line"/>
      <point x="253" y="1351" type="line"/>
      <point x="327" y="918" type="line"/>
      <point x="409" y="471" type="line"/>
      <point x="497" y="920" type="line"/>
      <point x="553" y="1250" type="line"/>
      <point x="640" y="1070" type="line"/>
      <point x="603" y="892" type="line"/>
      <point x="455" y="-2" type="line"/>
      <point x="315" y="-2" type="line"/>
      <point x="162" y="886" type="line"/>
      <point x="62" y="1353" type="line"/>
    </contour>
    <contour>
      <point x="419" y="1394" type="line"/>
      <point x="419" y="1500" type="line"/>
      <point x="752" y="1500" type="line"/>
      <point x="752" y="1394" type="line"/>
      <point x="678" y="1353" type="line"/>
      <point x="749" y="923" type="line"/>
      <point x="831" y="473" type="line"/>
      <point x="915" y="925" type="line"/>
      <point x="984" y="1358" type="line"/>
      <point x="895" y="1392" type="line"/>
      <point x="895" y="1500" type="line"/>
      <point x="1229" y="1500" type="line"/>
      <point x="1229" y="1392" type="line"/>
      <point x="1138" y="1353" type="line"/>
      <point x="1040" y="903" type="line"/>
      <point x="892" y="-2" type="line"/>
      <point x="749" y="-2" type="line"/>
      <point x="589" y="899" type="line"/>
      <point x="490" y="1355" type="line"/>
    </contour>
  </outline>
</glyph>
<glyph name="asciicircum" format="1">
  <advance width="708"/>
  <unicode hex="005E"/>
  <outline>
    <contour>
      <point x="348" y="1524" type="qcurve"/>
      <point x="348" y="1524"/>
      <point x="608" y="1136"/>
      <point x="645" y="1064" type="qcurve" smooth="yes"/>
      <point x="678" y="1005"/>
      <point x="582" y="948"/>
      <point x="549" y="1000" type="qcurve" smooth="yes"/>
      <point x="470" y="1125"/>
      <point x="349" y="1267"/>
      <point x="349" y="1267" type="qcurve"/>
      <point x="349" y="1267"/>
      <point x="239" y="1125"/>
      <point x="159" y="1000" type="qcurve" smooth="yes"/>
      <point x="126" y="949"/>
      <point x="30" y="1005"/>
      <point x="62" y="1064" type="qcurve" smooth="yes"/>
      <point x="100" y="1135"/>
      <point x="348" y="1524"/>
    </contour>
  </outline>
</glyph>
<glyph name="d" format="1">
  <advance width="715"/>
  <unicode hex="0064"/>
  <outline>
    <contour>
      <point x="26" y="493" type="qcurve" smooth="yes"/>
      <point x="26" y="765"/>
      <point x="190" y="1021"/>
      <point x="324" y="1021" type="qcurve" smooth="yes"/>
      <point x="387" y="1021"/>
      <point x="504" y="943"/>
      <point x="524" y="889" type="qcurve"/>
      <point x="455" y="832" type="line"/>
      <point x="440" y="873"/>
      <point x="382" y="913"/>
      <point x="341" y="913" type="qcurve" smooth="yes"/>
      <point x="277" y="913"/>
      <point x="208" y="763"/>
      <point x="208" y="513" type="qcurve" smooth="yes"/>
      <point x="208" y="260"/>
      <point x="263" y="96"/>
      <point x="329" y="96" type="qcurve" smooth="yes"/>
      <point x="378" y="96"/>
      <point x="444" y="170"/>
      <point x="461" y="231" type="qcurve"/>
      <point x="531" y="196" type="line"/>
      <point x="505" y="107"/>
      <point x="383" y="-9"/>
      <point x="301" y="-9" type="qcurve" smooth="yes"/>
      <point x="176" y="-9"/>
      <point x="26" y="230"/>
    </contour>
    <contour>
      <point x="357" y="1406" type="line"/>
      <point x="357" y="1500" type="line"/>
      <point x="551" y="1534" type="line"/>
      <point x="582" y="1534" type="line"/>
      <point x="610" y="1502" type="line"/>
      <point x="607" y="516" type="line"/>
      <point x="616" y="115" type="line"/>
      <point x="695" y="80" type="line"/>
      <point x="695" y="0" type="line"/>
      <point x="520" y="0" type="line"/>
      <point x="469" y="60" type="line"/>
      <point x="449" y="141" type="line"/>
      <point x="451" y="515" type="line"/>
      <point x="440" y="1376" type="line"/>
    </contour>
  </outline>
</glyph>
<glyph name="f" format="1">
  <advance width="418"/>
  <unicode hex="0066"/>
  <outline>
    <contour>
      <point x="21" y="0" type="line"/>
      <point x="21" y="80" type="line"/>
      <point x="109" y="115" type="line"/>
      <point x="114" y="527" type="line"/>
      <point x="114" y="850" type="line"/>
      <point x="24" y="878" type="line"/>
      <point x="24" y="965" type="line"/>
      <point x="116" y="984" type="line"/>
      <point x="114" y="1316" type="line" smooth="yes"/>
      <point x="113" y="1435"/>
      <point x="216" y="1532"/>
      <point x="305" y="1532" type="qcurve"/>
      <point x="391" y="1500" type="line"/>
      <point x="391" y="1410" type="line"/>
      <point x="284" y="1395" type="line"/>
      <point x="280" y="528" type="line"/>
      <point x="284" y="115" type="line"/>
      <point x="390" y="80" type="line"/>
      <point x="390" y="0" type="line"/>
    </contour>
    <contour>
      <point x="250" y="872" type="line"/>
      <point x="254" y="974" type="line"/>
      <point x="403" y="974" type="line"/>
      <point x="403" y="872" type="line"/>
    </contour>
  </outline>
</glyph>
<glyph name="i" format="1">
  <advance width="381"/>
  <unicode hex="0069"/>
  <outline>
    <contour>
      <point x="33" y="0" type="line"/>
      <point x="33" y="80" type="line"/>
      <point x="110" y="115" type="line"/>
      <point x="112" y="527" type="line"/>
      <point x="107" y="849" type="line"/>
      <point x="26" y="879" type="line"/>
      <point x="26" y="973" type="line"/>
      <point x="217" y="1007" type="line"/>
      <point x="262" y="1007" type="line"/>
      <point x="285" y="968" type="line"/>
      <point x="278" y="527" type="line"/>
      <point x="280" y="115" type="line"/>
      <point x="355" y="80" type="line"/>
      <point x="355" y="0" type="line"/>
    </contour>
    <contour>
      <point x="68" y="1337" type="qcurve" smooth="yes"/>
      <point x="68" y="1391"/>
      <point x="127" y="1450"/>
      <point x="183" y="1450" type="qcurve" smooth="yes"/>
      <point x="235" y="1450"/>
      <point x="298" y="1387"/>
      <point x="298" y="1337" type="qcurve" smooth="yes"/>
      <point x="298" y="1283"/>
      <point x="238" y="1224"/>
      <point x="183" y="1224" type="qcurve" smooth="yes"/>
      <point x="130" y="1224"/>
      <point x="68" y="1287"/>
    </contour>
  </outline>
</glyph>
<glyph name="m" format="1">
  <advance width="1118"/>
  <unicode hex="006D"/>
  <outline>
    <contour>
      <point x="27" y="0" type="line"/>
      <point x="27" y="80" type="line"/>
      <point x="102" y="115" type="line"/>
      <point x="104" y="527" type="line"/>
      <point x="102" y="849" type="line"/>
      <point x="27" y="879" type="line"/>
      <point x="27" y="973" type="line"/>
      <point x="212" y="1007" type="line"/>
      <point x="247" y="980" type="line"/>
      <point x="272" y="879" type="line"/>
      <point x="270" y="527" type="line"/>
      <point x="272" y="115" type="line"/>
      <point x="336" y="80" type="line"/>
      <point x="336" y="0" type="line"/>
    </contour>
    <contour>
      <point x="270" y="806" type="qcurve"/>
      <point x="233" y="841" type="line"/>
      <point x="262" y="918"/>
      <point x="384" y="1021"/>
      <point x="466" y="1021" type="qcurve" smooth="yes"/>
      <point x="556" y="1021"/>
      <point x="645" y="930"/>
      <point x="645" y="856" type="qcurve" smooth="yes"/>
      <point x="645" y="788"/>
      <point x="642" y="527"/>
      <point x="642" y="527" type="qcurve"/>
      <point x="647" y="115" type="line"/>
      <point x="712" y="80" type="line"/>
      <point x="712" y="0" type="line"/>
      <point x="411" y="0" type="line"/>
      <point x="411" y="80" type="line"/>
      <point x="477" y="115" type="line"/>
      <point x="479" y="527" type="line"/>
      <point x="479" y="789" type="line" smooth="yes"/>
      <point x="479" y="831"/>
      <point x="432" y="877"/>
      <point x="393" y="877" type="qcurve" smooth="yes"/>
      <point x="356" y="877"/>
      <point x="293" y="840"/>
    </contour>
    <contour>
      <point x="642" y="806" type="qcurve"/>
      <point x="605" y="841" type="line"/>
      <point x="633" y="918"/>
      <point x="756" y="1021"/>
      <point x="838" y="1021" type="qcurve" smooth="yes"/>
      <point x="928" y="1021"/>
      <point x="1017" y="930"/>
      <point x="1017" y="856" type="qcurve" smooth="yes"/>
      <point x="1017" y="788"/>
      <point x="1014" y="527"/>
      <point x="1014" y="527" type="qcurve"/>
      <point x="1019" y="115" type="line"/>
      <point x="1094" y="80" type="line"/>
      <point x="1094" y="0" type="line"/>
      <point x="784" y="0" type="line"/>
      <point x="784" y="80" type="line"/>
      <point x="849" y="115" type="line"/>
      <point x="851" y="527" type="line"/>
      <point x="851" y="789" type="line" smooth="yes"/>
      <point x="851" y="831"/>
      <point x="806" y="877"/>
      <point x="765" y="877" type="qcurve" smooth="yes"/>
      <point x="727" y="877"/>
      <point x="664" y="840"/>
    </contour>
  </outline>
</glyph>
<glyph name="p" format="1">
  <advance width="709"/>
  <unicode hex="0070"/>
  <outline>
    <contour>
      <point x="24" y="-431" type="line"/>
      <point x="24" y="-351" type="line"/>
      <point x="98" y="-316" type="line"/>
      <point x="100" y="427" type="line"/>
      <point x="98" y="849" type="line"/>
      <point x="21" y="879" type="line"/>
      <point x="21" y="973" type="line"/>
      <point x="208" y="1007" type="line"/>
      <point x="243" y="980" type="line"/>
      <point x="265" y="879" type="line"/>
      <point x="266" y="427" type="line"/>
      <point x="268" y="-316" type="line"/>
      <point x="350" y="-351" type="line"/>
      <point x="350" y="-431" type="line"/>
    </contour>
    <contour>
      <point x="225" y="100" type="qcurve"/>
      <point x="265" y="175" type="line"/>
      <point x="275" y="138"/>
      <point x="330" y="91"/>
      <point x="373" y="91" type="qcurve" smooth="yes"/>
      <point x="432" y="91"/>
      <point x="498" y="239"/>
      <point x="498" y="505" type="qcurve" smooth="yes"/>
      <point x="498" y="776"/>
      <point x="438" y="887"/>
      <point x="380" y="887" type="qcurve" smooth="yes"/>
      <point x="334" y="887"/>
      <point x="277" y="838"/>
      <point x="263" y="801" type="qcurve"/>
      <point x="237" y="860" type="line"/>
      <point x="261" y="929"/>
      <point x="365" y="1020"/>
      <point x="446" y="1020" type="qcurve" smooth="yes"/>
      <point x="547" y="1020"/>
      <point x="683" y="791"/>
      <point x="683" y="530" type="qcurve" smooth="yes"/>
      <point x="683" y="263"/>
      <point x="546" y="-12"/>
      <point x="419" y="-12" type="qcurve" smooth="yes"/>
      <point x="348" y="-12"/>
      <point x="243" y="60"/>
    </contour>
  </outline>
</glyph>
<glyph name="q" format="1">
  <advance width="703"/>
  <unicode hex="0071"/>
  <outline>
    <contour>
      <point x="26" y="493" type="qcurve" smooth="yes"/>
      <point x="26" y="764"/>
      <point x="189" y="1021"/>
      <point x="323" y="1021" type="qcurve" smooth="yes"/>
      <point x="386" y="1021"/>
      <point x="505" y="942"/>
      <point x="524" y="888" type="qcurve"/>
      <point x="456" y="832" type="line"/>
      <point x="440" y="871"/>
      <point x="385" y="913"/>
      <point x="338" y="913" type="qcurve" smooth="yes"/>
      <point x="277" y="913"/>
      <point x="208" y="761"/>
      <point x="208" y="503" type="qcurve" smooth="yes"/>
      <point x="208" y="244"/>
      <point x="263" y="96"/>
      <point x="326" y="96" type="qcurve" smooth="yes"/>
      <point x="378" y="96"/>
      <point x="444" y="175"/>
      <point x="462" y="229" type="qcurve"/>
      <point x="520" y="215" type="line"/>
      <point x="497" y="110"/>
      <point x="381" y="-9"/>
      <point x="286" y="-9" type="qcurve" smooth="yes"/>
      <point x="176" y="-9"/>
      <point x="26" y="223"/>
    </contour>
    <contour>
      <point x="350" y="-431" type="line"/>
      <point x="350" y="-351" type="line"/>
      <point x="439" y="-316" type="line"/>
      <point x="446" y="219" type="line"/>
      <point x="448" y="916" type="line"/>
      <point x="518" y="1008" type="line"/>
      <point x="687" y="976" type="line"/>
      <point x="687" y="882" type="line"/>
      <point x="614" y="858" type="line"/>
      <point x="608" y="428" type="line"/>
      <point x="609" y="-316" type="line"/>
      <point x="685" y="-351" type="line"/>
      <point x="685" y="-431" type="line"/>
    </contour>
  </outline>
</glyph>
<glyph name="u" format="1">
  <advance width="744"/>
  <unicode hex="0075"/>
  <outline>
    <contour>
      <point x="21" y="879" type="line"/>
      <point x="21" y="973" type="line"/>
      <point x="203" y="1007" type="line"/>
      <point x="238" y="1007" type="line"/>
      <point x="263" y="971" type="line"/>
      <point x="262" y="473" type="line"/>
      <point x="262" y="288" type="line" smooth="yes"/>
      <point x="262" y="171"/>
      <point x="306" y="113"/>
      <point x="347" y="113" type="qcurve" smooth="yes"/>
      <point x="386" y="113"/>
      <point x="453" y="177"/>
      <point x="473" y="243" type="qcurve"/>
      <point x="517" y="171" type="line"/>
      <point x="494" y="92"/>
      <point x="366" y="-14"/>
      <point x="283" y="-14" type="qcurve" smooth="yes"/>
      <point x="189" y="-14"/>
      <point x="94" y="111"/>
      <point x="94" y="259" type="qcurve" smooth="yes"/>
      <point x="94" y="332"/>
      <point x="98" y="473"/>
      <point x="98" y="473" type="qcurve"/>
      <point x="93" y="849" type="line"/>
    </contour>
    <contour>
      <point x="403" y="879" type="line"/>
      <point x="403" y="973" type="line"/>
      <point x="581" y="1007" type="line"/>
      <point x="616" y="1007" type="line"/>
      <point x="641" y="971" type="line"/>
      <point x="639" y="473" type="line"/>
      <point x="641" y="142" type="line"/>
      <point x="720" y="112" type="line"/>
      <point x="720" y="28" type="line"/>
      <point x="531" y="-6" type="line"/>
      <point x="496" y="21" type="line"/>
      <point x="471" y="128" type="line"/>
      <point x="473" y="473" type="line"/>
      <point x="471" y="849" type="line"/>
    </contour>
  </outline>
</glyph>
<glyph name="v" format="1">
  <advance width="650"/>
  <unicode hex="0076"/>
  <outline>
    <contour>
      <point x="-10" y="910" type="line"/>
      <point x="-10" y="1000" type="line"/>
      <point x="289" y="1000" type="line"/>
      <point x="289" y="910" type="line"/>
      <point x="218" y="873" type="line"/>
      <point x="279" y="595" type="line"/>
      <point x="338" y="339" type="line"/>
      <point x="395" y="623" type="line"/>
      <point x="451" y="880" type="line"/>
      <point x="376" y="910" type="line"/>
      <point x="376" y="1000" type="line"/>
      <point x="646" y="1000" type="line"/>
      <point x="646" y="910" type="line"/>
      <point x="568" y="875" type="line"/>
      <point x="500" y="602" type="line"/>
      <point x="380" y="-8" type="line"/>
      <point x="258" y="-8" type="line"/>
      <point x="149" y="474" type="line"/>
      <point x="52" y="875" type="line"/>
    </contour>
  </outline>
</glyph>
<glyph name="w" format="1">
  <advance width="926"/>
  <unicode hex="0077"/>
  <outline>
    <contour>
      <point x="-10" y="910" type="line"/>
      <point x="-10" y="1000" type="line"/>
      <point x="275" y="1000" type="line"/>
      <point x="275" y="910" type="line"/>
      <point x="217" y="873" type="line"/>
      <point x="269" y="594" type="line"/>
      <point x="323" y="291" type="line"/>
      <point x="374" y="561" type="line"/>
      <point x="433" y="877" type="line"/>
      <point x="504" y="795" type="line"/>
      <point x="445" y="528" type="line"/>
      <point x="354" y="-8" type="line"/>
      <point x="236" y="-8" type="line"/>
      <point x="128" y="512" type="line"/>
      <point x="44" y="875" type="line"/>
    </contour>
    <contour>
      <point x="335" y="910" type="line"/>
      <point x="335" y="1000" type="line"/>
      <point x="609" y="1000" type="line"/>
      <point x="609" y="910" type="line"/>
      <point x="542" y="873" type="line"/>
      <point x="601" y="567" type="line"/>
      <point x="650" y="293" type="line"/>
      <point x="706" y="582" type="line"/>
      <point x="758" y="880" type="line"/>
      <point x="694" y="910" type="line"/>
      <point x="694" y="1000" type="line"/>
      <point x="936" y="1000" type="line"/>
      <point x="936" y="910" type="line"/>
      <point x="872" y="875" type="line"/>
      <point x="799" y="558" type="line"/>
      <point x="692" y="-8" type="line"/>
      <point x="574" y="-8" type="line"/>
      <point x="473" y="547" type="line"/>
      <point x="397" y="875" type="line"/>
    </contour>
  </outline>
</glyph>
